<mxfile host="app.diagrams.net" modified="2023-09-28T14:27:22.686Z" agent="Mozilla/5.0 (Windows NT 10.0; Win64; x64) AppleWebKit/537.36 (KHTML, like Gecko) Chrome/117.0.0.0 Safari/537.36" etag="EVRNKbSzHYck8GaRU42N" version="22.0.0" type="device">
  <diagram name="Page-1" id="e7e014a7-5840-1c2e-5031-d8a46d1fe8dd">
    <mxGraphModel dx="1246" dy="811" grid="1" gridSize="10" guides="1" tooltips="1" connect="1" arrows="1" fold="1" page="1" pageScale="1" pageWidth="1169" pageHeight="826" background="none" math="0" shadow="0">
      <root>
        <mxCell id="0" />
        <mxCell id="1" parent="0" />
        <mxCell id="eRl1ivDZDA51r_nIInFx-45" value="TypeCar" style="swimlane;fontStyle=0;childLayout=stackLayout;horizontal=1;startSize=30;horizontalStack=0;resizeParent=1;resizeParentMax=0;resizeLast=0;collapsible=1;marginBottom=0;whiteSpace=wrap;html=1;" vertex="1" parent="1">
          <mxGeometry x="435" y="600" width="150" height="80" as="geometry" />
        </mxCell>
        <mxCell id="eRl1ivDZDA51r_nIInFx-62" value="values ()&amp;nbsp; SEDAN&lt;br&gt;values() PICKUP" style="text;strokeColor=none;fillColor=none;align=left;verticalAlign=top;spacingLeft=4;spacingRight=4;overflow=hidden;rotatable=0;points=[[0,0.5],[1,0.5]];portConstraint=eastwest;whiteSpace=wrap;html=1;" vertex="1" parent="eRl1ivDZDA51r_nIInFx-45">
          <mxGeometry y="30" width="150" height="50" as="geometry" />
        </mxCell>
        <mxCell id="eRl1ivDZDA51r_nIInFx-50" value="&amp;nbsp;Car" style="swimlane;fontStyle=1;align=center;verticalAlign=top;childLayout=stackLayout;horizontal=1;startSize=26;horizontalStack=0;resizeParent=1;resizeParentMax=0;resizeLast=0;collapsible=1;marginBottom=0;whiteSpace=wrap;html=1;strokeWidth=1;resizable=0;" vertex="1" parent="1">
          <mxGeometry x="360" y="210" width="180" height="246" as="geometry" />
        </mxCell>
        <mxCell id="eRl1ivDZDA51r_nIInFx-51" value="+ maintenance(): void&lt;br&gt;+ gearShirft(int): int&lt;br&gt;+ trnWprs() boolen&lt;br&gt;+turnLight() boolen&lt;br&gt;+ movement() void" style="text;strokeColor=none;fillColor=none;align=left;verticalAlign=top;spacingLeft=4;spacingRight=4;overflow=hidden;rotatable=0;points=[[0,0.5],[1,0.5]];portConstraint=eastwest;whiteSpace=wrap;html=1;" vertex="1" parent="eRl1ivDZDA51r_nIInFx-50">
          <mxGeometry y="26" width="180" height="84" as="geometry" />
        </mxCell>
        <mxCell id="eRl1ivDZDA51r_nIInFx-52" value="" style="line;strokeWidth=1;fillColor=none;align=left;verticalAlign=middle;spacingTop=-1;spacingLeft=3;spacingRight=3;rotatable=0;labelPosition=right;points=[];portConstraint=eastwest;strokeColor=inherit;" vertex="1" parent="eRl1ivDZDA51r_nIInFx-50">
          <mxGeometry y="110" width="180" height="8" as="geometry" />
        </mxCell>
        <mxCell id="eRl1ivDZDA51r_nIInFx-53" value="make String&lt;br&gt;model String&lt;br&gt;bodyType&amp;nbsp; &amp;nbsp;TyperCar&lt;br&gt;numberWheels&amp;nbsp; int&lt;br&gt;fuelType&amp;nbsp; &amp;nbsp; TypeFuel&lt;br&gt;gearBoxType&amp;nbsp; &amp;nbsp;TypeGearBox&lt;br&gt;bodyColor Color&lt;br&gt;engineCap&amp;nbsp; &amp;nbsp;int" style="text;strokeColor=none;fillColor=none;align=left;verticalAlign=top;spacingLeft=4;spacingRight=4;overflow=hidden;rotatable=0;points=[[0,0.5],[1,0.5]];portConstraint=eastwest;whiteSpace=wrap;html=1;" vertex="1" parent="eRl1ivDZDA51r_nIInFx-50">
          <mxGeometry y="118" width="180" height="128" as="geometry" />
        </mxCell>
        <mxCell id="eRl1ivDZDA51r_nIInFx-54" value="Pickup" style="swimlane;fontStyle=1;align=center;verticalAlign=top;childLayout=stackLayout;horizontal=1;startSize=26;horizontalStack=0;resizeParent=1;resizeParentMax=0;resizeLast=0;collapsible=1;marginBottom=0;whiteSpace=wrap;html=1;" vertex="1" parent="1">
          <mxGeometry x="600" y="213" width="160" height="130" as="geometry" />
        </mxCell>
        <mxCell id="eRl1ivDZDA51r_nIInFx-55" value="+ field(): viod&lt;br&gt;+&amp;nbsp;wipWindshield() :void&lt;br&gt;+wipHeadlights&lt;span style=&quot;font-family: &amp;quot;JetBrains Mono&amp;quot;, monospace; background-color: rgb(255, 255, 255);&quot;&gt;() :void&lt;br&gt;+ wipMirrors () :void&lt;br&gt;&lt;/span&gt;" style="text;strokeColor=none;fillColor=none;align=left;verticalAlign=top;spacingLeft=4;spacingRight=4;overflow=hidden;rotatable=0;points=[[0,0.5],[1,0.5]];portConstraint=eastwest;whiteSpace=wrap;html=1;" vertex="1" parent="eRl1ivDZDA51r_nIInFx-54">
          <mxGeometry y="26" width="160" height="64" as="geometry" />
        </mxCell>
        <mxCell id="eRl1ivDZDA51r_nIInFx-56" value="" style="line;strokeWidth=1;fillColor=none;align=left;verticalAlign=middle;spacingTop=-1;spacingLeft=3;spacingRight=3;rotatable=0;labelPosition=right;points=[];portConstraint=eastwest;strokeColor=inherit;" vertex="1" parent="eRl1ivDZDA51r_nIInFx-54">
          <mxGeometry y="90" width="160" height="8" as="geometry" />
        </mxCell>
        <mxCell id="eRl1ivDZDA51r_nIInFx-57" value="&lt;div style=&quot;&quot;&gt;&lt;pre style=&quot;font-family: &amp;quot;JetBrains Mono&amp;quot;, monospace;&quot;&gt;loadCap int&lt;/pre&gt;&lt;/div&gt;" style="text;strokeColor=none;fillColor=none;align=left;verticalAlign=top;spacingLeft=4;spacingRight=4;overflow=hidden;rotatable=0;points=[[0,0.5],[1,0.5]];portConstraint=eastwest;whiteSpace=wrap;html=1;" vertex="1" parent="eRl1ivDZDA51r_nIInFx-54">
          <mxGeometry y="98" width="160" height="32" as="geometry" />
        </mxCell>
        <mxCell id="eRl1ivDZDA51r_nIInFx-63" value="TypeFuel" style="swimlane;fontStyle=0;childLayout=stackLayout;horizontal=1;startSize=30;horizontalStack=0;resizeParent=1;resizeParentMax=0;resizeLast=0;collapsible=1;marginBottom=0;whiteSpace=wrap;html=1;" vertex="1" parent="1">
          <mxGeometry x="240" y="600" width="150" height="80" as="geometry" />
        </mxCell>
        <mxCell id="eRl1ivDZDA51r_nIInFx-64" value="values ()&amp;nbsp; GAS&lt;br&gt;values() DIS" style="text;strokeColor=none;fillColor=none;align=left;verticalAlign=top;spacingLeft=4;spacingRight=4;overflow=hidden;rotatable=0;points=[[0,0.5],[1,0.5]];portConstraint=eastwest;whiteSpace=wrap;html=1;" vertex="1" parent="eRl1ivDZDA51r_nIInFx-63">
          <mxGeometry y="30" width="150" height="50" as="geometry" />
        </mxCell>
        <mxCell id="eRl1ivDZDA51r_nIInFx-65" value="TypeFuel" style="swimlane;fontStyle=0;childLayout=stackLayout;horizontal=1;startSize=30;horizontalStack=0;resizeParent=1;resizeParentMax=0;resizeLast=0;collapsible=1;marginBottom=0;whiteSpace=wrap;html=1;" vertex="1" parent="1">
          <mxGeometry x="630" y="600" width="150" height="80" as="geometry" />
        </mxCell>
        <mxCell id="eRl1ivDZDA51r_nIInFx-66" value="values ()&amp;nbsp; MAN&lt;br&gt;values() AUTO&lt;br&gt;values() CVT" style="text;strokeColor=none;fillColor=none;align=left;verticalAlign=top;spacingLeft=4;spacingRight=4;overflow=hidden;rotatable=0;points=[[0,0.5],[1,0.5]];portConstraint=eastwest;whiteSpace=wrap;html=1;" vertex="1" parent="eRl1ivDZDA51r_nIInFx-65">
          <mxGeometry y="30" width="150" height="50" as="geometry" />
        </mxCell>
        <mxCell id="eRl1ivDZDA51r_nIInFx-71" value="&lt;p style=&quot;margin:0px;margin-top:4px;text-align:center;&quot;&gt;&lt;i&gt;&amp;lt;&amp;lt;Interface&amp;gt;&amp;gt;&lt;/i&gt;&lt;br&gt;&lt;/p&gt;&lt;pre style=&quot;border-color: var(--border-color); text-align: center; font-family: &amp;quot;JetBrains Mono&amp;quot;, monospace;&quot;&gt;ICarWash&lt;/pre&gt;&lt;hr size=&quot;1&quot;&gt;&lt;p style=&quot;margin:0px;margin-left:4px;&quot;&gt;&lt;br&gt;&lt;/p&gt;&lt;hr size=&quot;1&quot;&gt;&lt;p style=&quot;margin:0px;margin-left:4px;&quot;&gt;+&amp;nbsp;wipWindshield&lt;span style=&quot;background-color: rgb(255, 255, 255);&quot;&gt;&lt;span style=&quot;font-family: &amp;quot;JetBrains Mono&amp;quot;, monospace;&quot;&gt;(&lt;/span&gt;&lt;span style=&quot;font-family: &amp;quot;JetBrains Mono&amp;quot;, monospace;&quot;&gt;)&lt;/span&gt;(void)&lt;/span&gt;&lt;/p&gt;&lt;p style=&quot;margin:0px;margin-left:4px;&quot;&gt;&lt;span style=&quot;background-color: rgb(255, 255, 255);&quot;&gt;+&amp;nbsp;wipHeadlights&lt;span style=&quot;font-family: &amp;quot;JetBrains Mono&amp;quot;, monospace;&quot;&gt;()&lt;/span&gt;(): &lt;/span&gt;void&lt;/p&gt;&lt;p style=&quot;margin:0px;margin-left:4px;&quot;&gt;&lt;span style=&quot;background-color: initial;&quot;&gt;+&amp;nbsp;&lt;/span&gt;&lt;span style=&quot;font-family: &amp;quot;JetBrains Mono&amp;quot;, monospace; background-color: initial;&quot;&gt;wipMirror&lt;/span&gt;&lt;span style=&quot;font-family: &amp;quot;JetBrains Mono&amp;quot;, monospace; background-color: rgb(255, 255, 255);&quot;&gt;s()&lt;/span&gt;&lt;/p&gt;&lt;p style=&quot;margin:0px;margin-left:4px;&quot;&gt;&lt;span style=&quot;background-color: initial;&quot;&gt;&lt;br&gt;&lt;/span&gt;&lt;/p&gt;" style="verticalAlign=top;align=left;overflow=fill;fontSize=12;fontFamily=Helvetica;html=1;whiteSpace=wrap;recursiveResize=0;imageAspect=0;strokeColor=default;" vertex="1" parent="1">
          <mxGeometry x="300" y="40" width="150" height="140" as="geometry" />
        </mxCell>
        <mxCell id="eRl1ivDZDA51r_nIInFx-73" value="&lt;p style=&quot;margin:0px;margin-top:4px;text-align:center;&quot;&gt;&lt;i&gt;&amp;lt;&amp;lt;Interface&amp;gt;&amp;gt;&lt;/i&gt;&lt;br&gt;&lt;/p&gt;&lt;pre style=&quot;border-color: var(--border-color); text-align: center; font-family: &amp;quot;JetBrains Mono&amp;quot;, monospace;&quot;&gt;&lt;div style=&quot;&quot;&gt;&lt;pre style=&quot;font-family: &amp;quot;JetBrains Mono&amp;quot;, monospace;&quot;&gt;&lt;span style=&quot;background-color: rgb(255, 255, 255);&quot;&gt;IFuelStation&lt;/span&gt;&lt;/pre&gt;&lt;/div&gt;&lt;/pre&gt;&lt;hr size=&quot;1&quot;&gt;&lt;p style=&quot;margin:0px;margin-left:4px;&quot;&gt;&lt;br&gt;&lt;/p&gt;&lt;hr size=&quot;1&quot;&gt;&lt;p style=&quot;margin:0px;margin-left:4px;&quot;&gt;+&amp;nbsp;fuel&lt;span style=&quot;background-color: rgb(255, 255, 255);&quot;&gt;&lt;span style=&quot;font-family: &amp;quot;JetBrains Mono&amp;quot;, monospace;&quot;&gt;(&lt;/span&gt;&lt;span style=&quot;font-family: &amp;quot;JetBrains Mono&amp;quot;, monospace;&quot;&gt;)&lt;/span&gt;(void)&lt;/span&gt;&lt;/p&gt;&lt;p style=&quot;margin:0px;margin-left:4px;&quot;&gt;&lt;span style=&quot;background-color: initial;&quot;&gt;&lt;br&gt;&lt;/span&gt;&lt;/p&gt;" style="verticalAlign=top;align=left;overflow=fill;fontSize=12;fontFamily=Helvetica;html=1;whiteSpace=wrap;recursiveResize=0;imageAspect=0;strokeColor=default;" vertex="1" parent="1">
          <mxGeometry x="700" y="40" width="150" height="110" as="geometry" />
        </mxCell>
        <mxCell id="eRl1ivDZDA51r_nIInFx-74" value="1" style="endArrow=open;html=1;endSize=12;startArrow=diamondThin;startSize=14;startFill=1;edgeStyle=orthogonalEdgeStyle;align=left;verticalAlign=bottom;rounded=0;entryX=0.5;entryY=0;entryDx=0;entryDy=0;exitX=0.322;exitY=1.009;exitDx=0;exitDy=0;exitPerimeter=0;" edge="1" parent="1" source="eRl1ivDZDA51r_nIInFx-53" target="eRl1ivDZDA51r_nIInFx-63">
          <mxGeometry x="-1" y="3" relative="1" as="geometry">
            <mxPoint x="470" y="470" as="sourcePoint" />
            <mxPoint x="720" y="390" as="targetPoint" />
            <Array as="points">
              <mxPoint x="418" y="530" />
              <mxPoint x="315" y="530" />
            </Array>
          </mxGeometry>
        </mxCell>
        <mxCell id="eRl1ivDZDA51r_nIInFx-75" value="1" style="endArrow=open;html=1;endSize=12;startArrow=diamondThin;startSize=14;startFill=1;edgeStyle=orthogonalEdgeStyle;align=left;verticalAlign=bottom;rounded=0;entryX=0.566;entryY=-0.031;entryDx=0;entryDy=0;entryPerimeter=0;exitX=0.5;exitY=1.031;exitDx=0;exitDy=0;exitPerimeter=0;" edge="1" parent="1" source="eRl1ivDZDA51r_nIInFx-53" target="eRl1ivDZDA51r_nIInFx-45">
          <mxGeometry x="-1" y="3" relative="1" as="geometry">
            <mxPoint x="560" y="390" as="sourcePoint" />
            <mxPoint x="720" y="390" as="targetPoint" />
            <Array as="points">
              <mxPoint x="450" y="528" />
              <mxPoint x="520" y="528" />
            </Array>
          </mxGeometry>
        </mxCell>
        <mxCell id="eRl1ivDZDA51r_nIInFx-76" value="1" style="endArrow=open;html=1;endSize=12;startArrow=diamondThin;startSize=14;startFill=1;edgeStyle=orthogonalEdgeStyle;align=left;verticalAlign=bottom;rounded=0;exitX=1.019;exitY=0.843;exitDx=0;exitDy=0;exitPerimeter=0;entryX=0.5;entryY=0;entryDx=0;entryDy=0;" edge="1" parent="1" source="eRl1ivDZDA51r_nIInFx-53" target="eRl1ivDZDA51r_nIInFx-65">
          <mxGeometry x="-1" y="3" relative="1" as="geometry">
            <mxPoint x="560" y="390" as="sourcePoint" />
            <mxPoint x="720" y="390" as="targetPoint" />
          </mxGeometry>
        </mxCell>
        <mxCell id="eRl1ivDZDA51r_nIInFx-77" value="" style="endArrow=open;endFill=1;endSize=12;html=1;rounded=0;exitX=-0.006;exitY=0.908;exitDx=0;exitDy=0;exitPerimeter=0;entryX=1.01;entryY=0.727;entryDx=0;entryDy=0;entryPerimeter=0;" edge="1" parent="1" source="eRl1ivDZDA51r_nIInFx-55" target="eRl1ivDZDA51r_nIInFx-51">
          <mxGeometry width="160" relative="1" as="geometry">
            <mxPoint x="560" y="390" as="sourcePoint" />
            <mxPoint x="720" y="390" as="targetPoint" />
          </mxGeometry>
        </mxCell>
        <mxCell id="eRl1ivDZDA51r_nIInFx-78" value="" style="endArrow=block;dashed=1;endFill=0;endSize=12;html=1;rounded=0;exitX=0.67;exitY=-0.022;exitDx=0;exitDy=0;exitPerimeter=0;entryX=1.006;entryY=0.402;entryDx=0;entryDy=0;entryPerimeter=0;" edge="1" parent="1" source="eRl1ivDZDA51r_nIInFx-50" target="eRl1ivDZDA51r_nIInFx-71">
          <mxGeometry width="160" relative="1" as="geometry">
            <mxPoint x="560" y="280" as="sourcePoint" />
            <mxPoint x="720" y="280" as="targetPoint" />
            <Array as="points">
              <mxPoint x="480" y="96" />
            </Array>
          </mxGeometry>
        </mxCell>
        <mxCell id="eRl1ivDZDA51r_nIInFx-79" value="" style="endArrow=block;dashed=1;endFill=0;endSize=12;html=1;rounded=0;exitX=0.797;exitY=0.003;exitDx=0;exitDy=0;exitPerimeter=0;entryX=0;entryY=0.5;entryDx=0;entryDy=0;" edge="1" parent="1" source="eRl1ivDZDA51r_nIInFx-50" target="eRl1ivDZDA51r_nIInFx-73">
          <mxGeometry width="160" relative="1" as="geometry">
            <mxPoint x="560" y="280" as="sourcePoint" />
            <mxPoint x="720" y="280" as="targetPoint" />
            <Array as="points">
              <mxPoint x="503" y="95" />
            </Array>
          </mxGeometry>
        </mxCell>
      </root>
    </mxGraphModel>
  </diagram>
</mxfile>
